<svg aria-hidden="true" style="position:absolute;width:0;height:0;overflow:hidden" xmlns="http://www.w3.org/2000/svg"><defs>
<symbol id="icon-calendar" viewBox="0 0 28 32"><path d="M9.25 18h-2.5a.752.752 0 0 1-.75-.75v-2.5c0-.413.338-.75.75-.75h2.5c.412 0 .75.337.75.75v2.5c0 .413-.338.75-.75.75zm6.75-.75v-2.5a.752.752 0 0 0-.75-.75h-2.5a.752.752 0 0 0-.75.75v2.5c0 .413.338.75.75.75h2.5c.413 0 .75-.337.75-.75zm6 0v-2.5a.752.752 0 0 0-.75-.75h-2.5a.752.752 0 0 0-.75.75v2.5c0 .413.337.75.75.75h2.5c.413 0 .75-.337.75-.75zm-6 6v-2.5a.752.752 0 0 0-.75-.75h-2.5a.752.752 0 0 0-.75.75v2.5c0 .413.338.75.75.75h2.5c.413 0 .75-.337.75-.75zm-6 0v-2.5a.752.752 0 0 0-.75-.75h-2.5a.752.752 0 0 0-.75.75v2.5c0 .413.338.75.75.75h2.5c.412 0 .75-.337.75-.75zm12 0v-2.5a.752.752 0 0 0-.75-.75h-2.5a.752.752 0 0 0-.75.75v2.5c0 .413.337.75.75.75h2.5c.413 0 .75-.337.75-.75zM28 7v22c0 1.656-1.344 3-3 3H3c-1.656 0-3-1.344-3-3V7c0-1.656 1.344-3 3-3h3V.75c0-.412.338-.75.75-.75h2.5c.412 0 .75.338.75.75V4h8V.75c0-.412.337-.75.75-.75h2.5c.413 0 .75.338.75.75V4h3c1.656 0 3 1.344 3 3zm-3 21.625V10H3v18.625c0 .206.169.375.375.375h21.25a.376.376 0 0 0 .375-.375z"/></symbol>
<symbol id="icon-compass" viewBox="0 0 31 32"><path d="m21.512 8.116-8.924 4.123a1.98 1.98 0 0 0-.975.986l-4.079 9.021c-.471 1.041.59 2.113 1.62 1.637l8.924-4.123a1.98 1.98 0 0 0 .975-.986l4.079-9.021c.471-1.041-.59-2.113-1.62-1.637zm-4.783 9.295c-.771.779-2.021.779-2.792 0s-.771-2.043 0-2.822c.771-.779 2.021-.779 2.792 0s.771 2.043 0 2.822zM15.333.5C6.864.5 0 7.439 0 16s6.865 15.5 15.333 15.5c8.469 0 15.333-6.939 15.333-15.5S23.801.5 15.333.5zm0 28C8.515 28.5 2.967 22.893 2.967 16S8.514 3.5 15.333 3.5 27.699 9.107 27.699 16s-5.547 12.5-12.366 12.5z"/></symbol>
<symbol id="icon-envelope" viewBox="0 0 32 32"><path d="M30.912 10.282c-.294-.243-6.983-5.622-8.453-6.791C21.077 2.387 18.715 0 16.001 0c-2.7 0-5.04 2.357-6.458 3.491a3061.886 3061.886 0 0 0-8.447 6.784 2.993 2.993 0 0 0-1.094 2.317v16.407a3 3 0 0 0 3 3h26a3 3 0 0 0 3-3V12.593a3.004 3.004 0 0 0-1.089-2.312zM29 28.625a.376.376 0 0 1-.375.375H3.375A.376.376 0 0 1 3 28.625V12.772c0-.113.051-.22.139-.292.992-.801 6.8-5.472 8.273-6.643C12.547 4.93 14.525 3 16 3c1.481 0 3.491 1.961 4.588 2.837 1.473 1.171 7.281 5.843 8.273 6.645a.372.372 0 0 1 .14.291v15.852zm-1.999-11.732a.75.75 0 0 1-.109 1.061 1720.95 1720.95 0 0 1-4.433 3.554c-1.419 1.134-3.758 3.491-6.458 3.491-2.716 0-5.08-2.39-6.458-3.491a1496.8 1496.8 0 0 1-4.433-3.554.749.749 0 0 1-.109-1.061l.954-1.158a.75.75 0 0 1 1.049-.108c1.789 1.438 3.66 2.94 4.41 3.536 1.097.876 3.107 2.837 4.588 2.837 1.475 0 3.453-1.93 4.588-2.837.75-.596 2.622-2.098 4.41-3.535a.75.75 0 0 1 1.049.108l.954 1.158z"/></symbol>
<symbol id="icon-checked" viewBox="0 0 34 32"><path d="M27.947 7.893l-14.08 13.44L8.32 16l-2.56 2.56 7.893 7.253.213.427 16.213-15.573.427-.427z"/></symbol>  
</defs></svg>